HIERARCHY
ROOT Hips
{
  OFFSET 0 89.5177 0.535
  CHANNELS 6 Xposition Yposition Zposition Zrotation Xrotation Yrotation
  JOINT Spine
  {
    OFFSET 12.0259 -0.162855 1.69034e-005
    CHANNELS 3 Zrotation Xrotation Yrotation
    JOINT Spine1
    {
      OFFSET 15.3169 -0.0121922 0
      CHANNELS 3 Zrotation Xrotation Yrotation
      JOINT Spine2
      {
        OFFSET 15.3176 -0.0121908 0
        CHANNELS 3 Zrotation Xrotation Yrotation
        JOINT Neck
        {
          OFFSET 19.9142 1.56338 0
          CHANNELS 3 Zrotation Xrotation Yrotation
          JOINT Head
          {
            OFFSET 6.92651 0 0
            CHANNELS 3 Zrotation Xrotation Yrotation
            End Site
            {
              OFFSET 20.7666 0 0
            }
          }
          JOINT LeftShoulder
          {
            OFFSET -6.20654 0.708824 7.28219
            CHANNELS 3 Zrotation Xrotation Yrotation
            JOINT LeftArm
            {
              OFFSET 14.108 0 -1.52588e-005
              CHANNELS 3 Zrotation Xrotation Yrotation
              JOINT LeftForeArm
              {
                OFFSET 28.5802 0 0
                CHANNELS 3 Zrotation Xrotation Yrotation
                JOINT LeftHand
                {
                  OFFSET 27.092 0 0
                  CHANNELS 3 Zrotation Xrotation Yrotation
                  End Site
                  {
                    OFFSET 9.55928 -0.186424 0.145352
                  }
                }
              }
            }
          }
          JOINT RightShoulder
          {
            OFFSET -6.20654 0.708866 -7.28218
            CHANNELS 3 Zrotation Xrotation Yrotation
            JOINT RightArm
            {
              OFFSET 14.108 0 1.52588e-005
              CHANNELS 3 Zrotation Xrotation Yrotation
              JOINT RightForeArm
              {
                OFFSET 28.5802 0 0
                CHANNELS 3 Zrotation Xrotation Yrotation
                JOINT RightHand
                {
                  OFFSET 27.092 0 0
                  CHANNELS 3 Zrotation Xrotation Yrotation
                  End Site
                  {
                    OFFSET 9.55929 -0.186417 -0.145354
                  }
                }
              }
            }
          }
        }
      }
    }
  }
  JOINT LeftUpLeg
  {
    OFFSET 0.005 -0.535 8.837
    CHANNELS 3 Zrotation Xrotation Yrotation
    JOINT LeftLeg
    {
      OFFSET 39.9035 0 0
      CHANNELS 3 Zrotation Xrotation Yrotation
      JOINT LeftFoot
      {
        OFFSET 39.6689 0 0
        CHANNELS 3 Zrotation Xrotation Yrotation
        JOINT LeftToe
        {
          OFFSET 10.1624 13.6296 0
          CHANNELS 3 Zrotation Xrotation Yrotation
          End Site
          {
            OFFSET 8.38147 0 0
          }
        }
      }
    }
  }
  JOINT RightUpLeg
  {
    OFFSET 0.005 -0.535 -8.837
    CHANNELS 3 Zrotation Xrotation Yrotation
    JOINT RightLeg
    {
      OFFSET 39.9035 0 0
      CHANNELS 3 Zrotation Xrotation Yrotation
      JOINT RightFoot
      {
        OFFSET 39.6689 0 0
        CHANNELS 3 Zrotation Xrotation Yrotation
        JOINT RightToe
        {
          OFFSET 10.1624 13.6296 0
          CHANNELS 3 Zrotation Xrotation Yrotation
          End Site
          {
            OFFSET 8.38147 0 0
          }
        }
      }
    }
  }
}
MOTION
Frames:	12
Frame Time:	0.0333333
509.946 85.392 -173.615 176.5 -83.8335 84.704 -1.55678 -0.143303 -0.641312 -3.11508 -0.268659 -1.2861 -3.11508 -0.268659 -1.28611 -8.30768e-012 -9.0191e-006 -5.27751e-005 8.1014 11.6726 -6.07069 179.763 -9.95538 -91.3739 -24.2835 -52.3727 1.68293 -9.5411e-006 3.18055e-015 -0 -43.4475 -21.3634 -27.5493 179.786 4.52347 92.7185 56.131 63.9193 -73.3053 -0.145397 0 1.59028e-015 -43.4553 19.4139 26.6487 -14.4282 2.8079 -178.459 -33.8946 3.97569e-016 7.95139e-016 25.6762 4.36641 0.642689 90 8.75752e-021 -0 -16.0945 -4.14958 179.725 -33.0847 3.97569e-016 9.93923e-016 23.118 -3.0974 1.31795 90 -4.02849e-022 1.98785e-016 
509.913 85.3868 -173.601 176.713 -83.8261 84.9533 -1.55481 -0.146501 -0.639666 -3.11117 -0.27512 -1.28289 -3.11117 -0.27512 -1.2829 -8.30669e-012 -9.0191e-006 -5.27751e-005 8.11468 11.7279 -6.17733 179.771 -9.94877 -91.3291 -24.0507 -52.4731 1.74921 -9.52932e-006 -3.18055e-015 -1.59028e-015 -43.4232 -21.4973 -27.6534 179.787 4.51914 92.6963 56.0099 63.9146 -73.1238 -0.098817 1.59028e-015 3.18055e-015 -43.3237 19.4432 26.6774 -14.4446 2.85681 -178.51 -33.8979 3.97569e-016 -0 25.6697 4.37936 0.666482 90 2.03794e-020 9.93923e-017 -16.1534 -4.13337 179.661 -33.1466 -3.97569e-016 -3.97569e-016 23.1341 -3.10332 1.34553 90 1.58059e-020 -0 
509.892 85.3866 -173.586 177.406 -83.8225 85.6949 -1.55444 -0.146232 -0.642753 -3.11041 -0.273399 -1.28904 -3.11041 -0.273398 -1.28905 -8.30748e-012 -9.0191e-006 -5.27751e-005 8.12561 11.8038 -6.23731 179.78 -9.91823 -91.2792 -23.8007 -52.3336 1.73542 -9.51712e-006 0 -1.59028e-015 -43.4082 -21.5892 -27.7999 179.791 4.52048 92.6515 55.5091 63.8278 -72.6559 -0.101326 4.77083e-015 -0 -43.3344 19.5586 26.7846 -14.4343 2.91644 -178.564 -33.863 3.97569e-016 3.97569e-016 25.6508 4.37024 0.682986 90 4.7394e-023 -9.93923e-017 -16.2179 -4.11933 179.601 -33.2003 0 1.98785e-016 23.1357 -3.15016 1.35838 90 -9.78833e-021 -0 
509.882 85.3742 -173.579 177.864 -83.8434 86.1538 -1.5522 -0.145592 -0.632451 -3.09673 -0.284528 -1.26857 -3.09673 -0.284528 -1.26858 -8.30768e-012 -9.0191e-006 -5.27751e-005 8.17153 11.8612 -6.34304 179.794 -9.91581 -91.1971 -23.6345 -52.0441 1.65335 -9.50451e-006 3.18055e-015 1.59028e-015 -43.4639 -21.792 -28.0787 179.79 4.54175 92.6511 55.7748 63.842 -72.9129 -0.0831669 1.59028e-015 4.77083e-015 -43.2455 19.4941 26.6939 -14.4538 3.0656 -178.541 -33.9279 -7.95139e-016 -1.98785e-016 25.6821 4.44095 0.68605 90 1.01897e-021 9.93923e-017 -16.2532 -4.16789 179.583 -33.2744 -7.95139e-016 3.97569e-016 23.1562 -3.19441 1.36591 90 -3.44317e-020 9.93923e-017 
509.881 85.3585 -173.576 177.986 -83.8747 86.2889 -1.54881 -0.144828 -0.629485 -3.08776 -0.291942 -1.26272 -3.08776 -0.291942 -1.26273 -8.30748e-012 -9.0191e-006 -5.27751e-005 8.21712 11.8746 -6.39413 179.801 -9.9506 -91.1479 -23.5163 -51.952 1.61974 -9.49147e-006 9.54166e-015 -4.77083e-015 -43.3689 -21.9011 -28.1779 179.79 4.57302 92.6383 55.7575 63.8053 -72.869 -0.0718369 0 1.59028e-015 -43.1656 19.4998 26.67 -14.4614 3.11971 -178.543 -33.9995 -3.97569e-016 -5.96354e-016 25.7165 4.46066 0.686375 90 -1.84836e-021 -0 -16.2611 -4.11314 179.58 -33.3602 3.97569e-016 -7.95139e-016 23.2037 -3.14376 1.36457 90 -3.47338e-020 9.93923e-017 
509.898 85.3426 -173.578 178.412 -83.8705 86.744 -1.54572 -0.144187 -0.636909 -3.08833 -0.279346 -1.27741 -3.08833 -0.279346 -1.27742 -8.30748e-012 -9.0191e-006 -5.27751e-005 8.25348 11.8643 -6.38976 179.806 -9.99185 -91.117 -23.4803 -51.858 1.55255 -9.47799e-006 3.18055e-015 -0 -43.4628 -21.9451 -28.2622 179.798 4.53629 92.5597 55.4098 63.7558 -72.4042 -0.047867 1.59028e-015 1.59028e-015 -43.2077 19.4839 26.651 -14.4829 3.182 -178.539 -34.0499 -3.97569e-016 -5.96354e-016 25.7531 4.48473 0.665015 90 1.423e-020 -1.98785e-016 -16.3355 -4.1954 179.549 -33.4728 -3.97569e-016 9.93923e-016 23.2497 -3.24205 1.34862 90 -1.43248e-020 1.98785e-016 
509.93 85.3447 -173.591 178.475 -83.8921 86.753 -1.54434 -0.143919 -0.62621 -3.09017 -0.270438 -1.25589 -3.09017 -0.270438 -1.2559 -8.30788e-012 -9.0191e-006 -5.27751e-005 8.34975 11.8525 -6.4214 179.81 -9.99556 -91.0947 -23.3705 -51.9342 1.57524 -9.46407e-006 -3.18055e-015 -0 -43.3351 -21.7659 -28.0522 179.798 4.53527 92.5589 55.4141 63.6872 -72.3189 -8.88082e-006 0 3.18055e-015 -43.4616 19.5466 26.8172 -14.4662 3.17913 -178.463 -34.073 -7.95139e-016 -9.93923e-016 25.7767 4.46801 0.643221 90 2.90051e-020 9.93923e-017 -16.2621 -4.14466 179.639 -33.4111 -7.95139e-016 5.96354e-016 23.2349 -3.19682 1.32616 90 -9.92311e-021 9.93923e-017 
509.958 85.3452 -173.608 178.473 -83.9057 86.7274 -1.54697 -0.144043 -0.620973 -3.09541 -0.270799 -1.24542 -3.09541 -0.270799 -1.24543 -8.30748e-012 -9.0191e-006 -5.27751e-005 8.47485 11.9106 -6.51055 179.811 -10.0486 -91.0802 -23.3603 -51.7901 1.6023 -9.44971e-006 3.18055e-015 1.59028e-015 -43.4893 -21.7389 -28.1039 179.8 4.5364 92.5321 55.4198 63.6804 -72.2473 -2.76848e-006 3.18055e-015 -0 -43.4621 19.6255 26.9429 -14.4221 3.00234 -178.452 -34.0678 3.97569e-016 3.97569e-016 25.7989 4.37114 0.628905 90 -4.26546e-021 9.93923e-017 -16.2235 -4.20358 179.672 -33.3858 -1.59028e-015 -3.97569e-016 23.2323 -3.24313 1.30916 90 1.16411e-020 -0 
510.004 85.3448 -173.601 178.186 -83.8598 86.433 -1.56346 -0.152199 -0.621042 -3.12849 -0.286925 -1.24582 -3.12849 -0.286925 -1.24583 -8.30748e-012 -9.0191e-006 -5.27751e-005 8.61693 11.9873 -6.64518 179.809 -10.0732 -91.0925 -23.2951 -51.903 1.65213 -9.43488e-006 -3.18055e-015 -4.77083e-015 -43.46 -21.7776 -28.0546 179.799 4.57411 92.526 55.341 63.6619 -72.1718 -2.61068e-006 0 1.59028e-015 -43.5243 19.799 27.1602 -14.5078 3.12461 -178.383 -34.0962 -1.19271e-015 -1.98785e-016 25.7936 4.50837 0.585736 90 -1.2666e-020 -9.93923e-017 -16.2661 -4.22663 179.71 -33.3857 -3.97569e-016 -1.98785e-016 23.2314 -3.2251 1.27271 90 -8.0629e-021 1.98785e-016 
510.05 85.3454 -173.615 178.028 -83.9065 86.2927 -1.55394 -0.159117 -0.630448 -3.10956 -0.300607 -1.2648 -3.10956 -0.300607 -1.2648 -8.30768e-012 -9.0191e-006 -5.27751e-005 8.7116 12.0683 -6.81731 179.807 -10.0542 -91.1027 -23.252 -52.116 1.59982 -9.4196e-006 -3.18055e-015 -3.18055e-015 -43.3801 -21.8484 -28.0932 179.802 4.59077 92.4755 55.1228 63.6754 -71.9511 -2.45289e-006 4.77083e-015 3.18055e-015 -43.4104 19.8249 27.0647 -14.4395 3.12315 -178.362 -34.0749 7.95139e-016 3.97569e-016 25.7956 4.49482 0.545578 90 -1.71566e-020 9.93923e-017 -16.2046 -4.18404 179.737 -33.3901 -7.95139e-016 1.98785e-016 23.2492 -3.18769 1.23693 90 -3.41237e-021 -9.93923e-017 
510.104 85.3454 -173.624 177.021 -83.9028 85.2817 -1.54905 -0.192866 -0.635244 -3.10016 -0.368015 -1.27529 -3.10016 -0.368015 -1.2753 -8.30748e-012 -9.0191e-006 -5.27751e-005 8.72605 12.1412 -7.01898 179.802 -10.0087 -91.136 -23.1063 -52.3757 1.58281 -9.40384e-006 3.18055e-015 7.95139e-015 -43.3554 -21.7039 -27.9898 179.799 4.62346 92.4985 55.6518 63.7436 -72.5013 -2.29962e-011 1.59028e-015 -1.59028e-015 -43.3391 19.656 26.8836 -14.458 3.08772 -178.324 -34.0895 3.97569e-016 1.98785e-016 25.792 4.56123 0.502323 90 -1.41471e-020 -0 -16.1742 -4.23361 179.772 -33.38 -1.19271e-015 -3.97569e-016 23.2644 -3.13638 1.19361 90 5.82946e-021 9.93923e-017 
510.153 85.3456 -173.644 175.586 -83.9036 83.8648 -1.54008 -0.232979 -0.646446 -3.08272 -0.448022 -1.29875 -3.08272 -0.448022 -1.29876 -8.30768e-012 -9.0191e-006 -5.27751e-005 8.72389 12.1853 -7.21782 179.804 -9.98273 -91.132 -23.1136 -52.3127 1.47172 -9.38761e-006 3.18055e-015 -3.18055e-015 -43.4296 -21.6488 -27.9967 179.798 4.6857 92.4752 55.6677 63.78 -72.6001 -0.0294264 0 -3.18055e-015 -43.2475 19.5944 26.6399 -14.4393 2.97741 -178.324 -34.0758 7.95139e-016 3.97569e-016 25.7839 4.58915 0.459068 90 -3.55455e-022 -9.93923e-017 -16.1096 -4.23949 179.782 -33.3674 3.97569e-016 3.97569e-016 23.3038 -3.04662 1.15995 90 -1.49409e-020 1.98785e-016 
